<svg width="20" height="18" viewBox="0 0 20 18" fill="none" xmlns="http://www.w3.org/2000/svg">
<path d="M9.04894 0.693165C9.3483 -0.228146 10.6517 -0.228147 10.9511 0.693164L12.4697 5.36693C12.6035 5.77895 12.9875 6.05791 13.4207 6.05791H18.335C19.3037 6.05791 19.7065 7.29752 18.9228 7.86693L14.947 10.7555C14.5966 11.0101 14.4499 11.4615 14.5838 11.8735L16.1024 16.5473C16.4017 17.4686 15.3472 18.2347 14.5635 17.6653L10.5878 14.7768C10.2373 14.5221 9.7627 14.5221 9.41221 14.7768L5.43648 17.6653C4.65276 18.2347 3.59828 17.4686 3.89763 16.5473L5.41623 11.8735C5.55011 11.4615 5.40345 11.0101 5.05296 10.7555L1.07722 7.86693C0.293507 7.29753 0.696283 6.05791 1.66501 6.05791H6.57929C7.01252 6.05791 7.39647 5.77895 7.53035 5.36693L9.04894 0.693165Z" fill="#FFB800"/>
</svg>
