<svg width="27" height="25" viewBox="0 0 27 25" fill="none" xmlns="http://www.w3.org/2000/svg">
<path d="M12.5489 0.693163C12.8483 -0.228148 14.1517 -0.228146 14.4511 0.693164L16.7555 7.78537C16.8893 8.19739 17.2733 8.47635 17.7065 8.47635H25.1637C26.1324 8.47635 26.5352 9.71597 25.7515 10.2854L19.7185 14.6686C19.368 14.9232 19.2213 15.3746 19.3552 15.7866L21.6596 22.8788C21.959 23.8001 20.9045 24.5663 20.1208 23.9969L14.0878 19.6136C13.7373 19.359 13.2627 19.359 12.9122 19.6136L6.87923 23.9969C6.09551 24.5663 5.04103 23.8001 5.34039 22.8788L7.64478 15.7866C7.77866 15.3746 7.632 14.9232 7.28151 14.6686L1.24852 10.2854C0.464807 9.71596 0.867584 8.47635 1.83631 8.47635H9.29349C9.72672 8.47635 10.1107 8.19739 10.2445 7.78537L12.5489 0.693163Z" fill="#979797"/>
</svg>
